<?xml version="1.0" encoding="UTF-8" standalone="no"?>
<svg xmlns="http://www.w3.org/2000/svg" version="1.2" baseProfile="tiny" viewBox="0.00 0.00 1000.00 1000.00">
<path fill="#000000" d="
  M 390.44 0.00
  L 439.52 0.00
  L 481.59 33.42
  Q 482.08 33.80 481.47 33.96
  C 480.69 34.15 479.92 34.21 479.20 34.49
  Q 431.96 53.00 384.66 71.35
  Q 382.54 72.17 380.07 73.55
  A 0.50 0.49 79.8 0 1 379.34 73.04
  L 390.44 0.00
  Z"
/>
<path fill="#000000" d="
  M 542.94 0.00
  L 705.93 0.00
  L 770.22 19.52
  Q 771.54 19.92 770.52 20.86
  C 769.41 21.88 768.44 23.17 767.32 24.22
  Q 682.86 102.81 598.43 181.43
  Q 593.00 186.49 587.98 191.67
  A 0.55 0.54 60.5 0 1 587.06 191.41
  L 542.94 0.00
  Z"
/>
<path fill="#000000" d="
  M 875.01 0.00
  L 1000.00 0.00
  L 1000.00 99.83
  L 875.59 171.70
  A 0.39 0.39 0.0 0 1 875.00 171.37
  L 875.01 0.00
  Z"
/>
<path fill="#000000" d="
  M 81.27 64.99
  L 172.01 5.08
  A 0.37 0.37 0.0 0 1 172.58 5.37
  L 178.96 113.91
  A 0.37 0.37 0.0 0 1 178.43 114.26
  L 81.30 65.63
  A 0.37 0.37 0.0 0 1 81.27 64.99
  Z"
/>
<path fill="#000000" d="
  M 233.39 151.33
  L 202.63 16.08
  A 0.34 0.34 0.0 0 1 203.06 15.68
  L 335.56 56.73
  A 0.34 0.34 0.0 0 1 335.69 57.30
  L 233.95 151.51
  A 0.34 0.34 0.0 0 1 233.39 151.33
  Z"
/>
<path fill="#000000" d="
  M 715.89 158.20
  L 794.29 43.82
  A 0.33 0.33 0.0 0 1 794.86 43.86
  L 854.83 168.89
  A 0.33 0.33 0.0 0 1 854.51 169.36
  L 716.14 158.72
  A 0.33 0.33 0.0 0 1 715.89 158.20
  Z"
/>
<path fill="#000000" d="
  M 308.46 126.91
  C 308.32 125.93 293.00 111.52 290.60 109.18
  Q 289.42 108.03 291.01 107.61
  L 533.03 43.61
  Q 533.61 43.45 533.45 44.04
  L 467.65 285.99
  A 0.52 0.52 0.0 0 1 466.78 286.22
  C 413.76 233.60 361.73 179.72 308.54 127.11
  A 0.42 0.22 -84.1 0 1 308.46 126.91
  Z"
/>
<path fill="#000000" d="
  M 21.69 298.52
  L 36.12 47.80
  A 0.34 0.34 0.0 0 1 36.64 47.53
  L 246.53 185.44
  A 0.34 0.34 0.0 0 1 246.50 186.03
  L 22.18 298.85
  A 0.34 0.34 0.0 0 1 21.69 298.52
  Z"
/>
<path fill="#000000" d="
  M 1000.00 130.31
  L 1000.00 343.97
  L 876.95 343.97
  Q 876.00 343.97 876.47 343.15
  L 999.41 130.42
  Q 999.52 130.23 999.74 130.25
  Q 999.87 130.26 1000.00 130.31
  Z"
/>
<path fill="#000000" d="
  M 669.02 150.91
  L 675.48 258.39
  A 0.74 0.74 0.0 0 1 674.41 259.09
  L 578.17 210.81
  A 0.74 0.74 0.0 0 1 578.10 209.53
  L 667.87 150.33
  A 0.74 0.74 0.0 0 1 669.02 150.91
  Z"
/>
<path fill="#000000" d="
  M 684.71 192.02
  L 934.98 191.97
  A 0.65 0.65 0.0 0 1 935.54 192.94
  L 810.36 409.65
  A 0.65 0.65 0.0 0 1 809.24 409.65
  L 684.15 193.00
  A 0.65 0.65 0.0 0 1 684.71 192.02
  Z"
/>
<path fill="#000000" d="
  M 512.86 193.74
  L 729.43 318.87
  A 0.57 0.57 0.0 0 1 729.43 319.85
  L 512.86 444.98
  A 0.57 0.57 0.0 0 1 512.00 444.49
  L 512.00 194.23
  A 0.57 0.57 0.0 0 1 512.86 193.74
  Z"
/>
<path fill="#000000" d="
  M 501.69 333.93
  L 277.49 446.72
  A 0.39 0.39 0.0 0 1 276.92 446.35
  L 291.39 195.80
  A 0.39 0.39 0.0 0 1 292.00 195.49
  L 501.73 333.26
  A 0.39 0.39 0.0 0 1 501.69 333.93
  Z"
/>
<path fill="#000000" d="
  M 254.98 209.73
  L 255.03 459.45
  A 0.71 0.71 0.0 0 1 253.96 460.07
  L 37.72 335.17
  A 0.71 0.71 0.0 0 1 37.72 333.94
  L 253.91 209.12
  A 0.71 0.71 0.0 0 1 254.98 209.73
  Z"
/>
<path fill="#000000" d="
  M 0.00 461.96
  L 0.00 318.07
  Q 1.42 319.98 4.57 325.43
  Q 43.81 393.33 82.87 461.07
  A 0.59 0.59 0.0 0 1 82.36 461.96
  L 0.00 461.96
  Z"
/>
<path fill="#000000" d="
  M 1000.00 368.41
  L 1000.00 383.81
  Q 999.40 385.44 998.03 387.54
  Q 966.09 436.52 934.03 485.64
  A 0.36 0.36 0.0 0 1 933.41 485.61
  L 870.62 361.95
  Q 870.40 361.51 870.89 361.54
  L 1000.00 368.41
  Z"
/>
<path fill="#000000" d="
  M 711.10 616.72
  L 494.46 491.57
  A 0.60 0.60 0.0 0 1 494.46 490.53
  L 711.10 365.38
  A 0.60 0.60 0.0 0 1 712.00 365.89
  L 712.00 616.21
  A 0.60 0.60 0.0 0 1 711.10 616.72
  Z"
/>
<path fill="#000000" d="
  M 947.42 505.56
  L 724.06 617.92
  A 0.66 0.66 0.0 0 1 723.10 617.29
  L 737.51 367.67
  A 0.66 0.66 0.0 0 1 738.53 367.16
  L 947.49 504.42
  A 0.66 0.66 0.0 0 1 947.42 505.56
  Z"
/>
<path fill="#000000" d="
  M 288.30 617.43
  L 413.68 400.37
  A 0.38 0.38 0.0 0 1 414.34 400.37
  L 539.72 617.43
  A 0.38 0.38 0.0 0 1 539.39 618.00
  L 288.63 618.00
  A 0.38 0.38 0.0 0 1 288.30 617.43
  Z"
/>
<path fill="#000000" d="
  M 104.08 401.20
  L 320.83 526.42
  A 0.72 0.72 0.0 0 1 320.83 527.66
  L 104.08 652.88
  A 0.72 0.72 0.0 0 1 103.00 652.25
  L 103.00 401.83
  A 0.72 0.72 0.0 0 1 104.08 401.20
  Z"
/>
<path fill="#000000" d="
  M 0.00 539.41
  L 0.00 512.15
  L 67.13 467.89
  A 0.81 0.81 0.0 0 1 68.39 468.52
  Q 71.30 517.85 74.19 567.39
  C 74.36 570.30 74.31 573.25 75.08 576.28
  A 0.40 0.40 0.0 0 1 74.51 576.74
  L 0.00 539.41
  Z"
/>
<path fill="#000000" d="
  M 940.83 652.86
  L 844.23 604.60
  A 0.60 0.60 0.0 0 1 844.17 603.56
  L 934.38 544.19
  A 0.60 0.60 0.0 0 1 935.31 544.66
  L 941.70 652.29
  A 0.60 0.60 0.0 0 1 940.83 652.86
  Z"
/>
<path fill="#000000" d="
  M 560.50 557.41
  L 778.29 683.22
  A 0.33 0.33 0.0 0 1 778.29 683.80
  L 560.50 809.61
  A 0.33 0.33 0.0 0 1 560.00 809.33
  L 560.00 557.69
  A 0.33 0.33 0.0 0 1 560.50 557.41
  Z"
/>
<path fill="#000000" d="
  M 808.82 733.79
  L 778.32 599.66
  A 0.67 0.67 0.0 0 1 779.17 598.87
  L 910.57 639.58
  A 0.67 0.67 0.0 0 1 910.83 640.71
  L 809.93 734.14
  A 0.67 0.67 0.0 0 1 808.82 733.79
  Z"
/>
<path fill="#000000" d="
  M 104.81 824.46
  L 230.37 607.12
  A 0.36 0.36 0.0 0 1 230.99 607.12
  L 356.55 824.46
  A 0.36 0.36 0.0 0 1 356.24 825.00
  L 105.12 825.00
  A 0.36 0.36 0.0 0 1 104.81 824.46
  Z"
/>
<path fill="#000000" d="
  M 37.68 647.25
  L 170.12 688.19
  A 0.37 0.37 0.0 0 1 170.26 688.82
  L 68.52 782.97
  A 0.37 0.37 0.0 0 1 67.90 782.78
  L 37.21 647.68
  A 0.37 0.37 0.0 0 1 37.68 647.25
  Z"
/>
<path fill="#000000" d="
  M 426.19 876.49
  L 300.35 658.73
  A 0.32 0.32 0.0 0 1 300.62 658.25
  L 552.20 658.25
  A 0.32 0.32 0.0 0 1 552.47 658.73
  L 426.75 876.49
  A 0.32 0.32 0.0 0 1 426.19 876.49
  Z"
/>
<path fill="#000000" d="
  M 1000.00 731.82
  L 1000.00 808.21
  L 924.97 826.96
  A 0.79 0.79 0.0 0 1 924.02 825.98
  L 962.20 693.42
  A 0.39 0.39 0.0 0 1 962.86 693.26
  L 1000.00 731.82
  Z"
/>
<path fill="#000000" d="
  M 849.03 953.73
  L 672.49 775.84
  A 0.48 0.48 0.0 0 1 672.71 775.04
  L 915.00 710.93
  A 0.48 0.48 0.0 0 1 915.58 711.52
  L 849.83 953.52
  A 0.48 0.48 0.0 0 1 849.03 953.73
  Z"
/>
<path fill="#000000" d="
  M 613.22 1000.00
  L 539.87 1000.00
  L 503.97 808.12
  A 1.07 1.06 4.4 0 1 505.37 806.92
  L 740.73 889.71
  Q 741.58 890.01 740.90 890.60
  L 613.22 1000.00
  Z"
/>
<path fill="#000000" d="
  M 441.90 1000.00
  L 299.03 1000.00
  L 299.03 831.17
  A 0.55 0.55 0.0 0 1 299.86 830.69
  L 517.31 956.27
  Q 517.69 956.49 517.31 956.71
  L 441.90 1000.00
  Z"
/>
<path fill="#000000" d="
  M 0.00 835.41
  L 248.93 850.67
  A 1.05 1.04 18.5 0 1 249.74 852.29
  Q 201.35 925.47 152.73 998.96
  Q 152.43 999.42 150.93 1000.00
  L 81.09 1000.00
  L 0.00 837.27
  L 0.00 835.41
  Z"
/>
<path fill="#000000" d="
  M 939.78 854.87
  L 999.79 980.07
  A 0.30 0.30 0.0 0 1 999.49 980.50
  L 861.06 969.83
  A 0.30 0.30 0.0 0 1 860.84 969.36
  L 939.26 854.83
  A 0.30 0.30 0.0 0 1 939.78 854.87
  Z"
/>
<path fill="#000000" d="
  M 283.30 890.66
  L 289.66 999.26
  A 0.34 0.34 0.0 0 1 289.16 999.58
  L 191.86 950.96
  A 0.34 0.34 0.0 0 1 191.82 950.37
  L 282.77 890.40
  A 0.34 0.34 0.0 0 1 283.30 890.66
  Z"
/>
<path fill="#000000" d="
  M 783.28 890.69
  L 789.66 999.29
  A 0.34 0.34 0.0 0 1 789.17 999.61
  L 691.87 950.96
  A 0.34 0.34 0.0 0 1 691.83 950.37
  L 782.75 890.42
  A 0.34 0.34 0.0 0 1 783.28 890.69
  Z"
/>
</svg>
