<?xml version="1.0" encoding="UTF-8" standalone="no"?>
<svg xmlns="http://www.w3.org/2000/svg" version="1.2" baseProfile="tiny" viewBox="0.00 0.00 422.00 385.00">
<circle fill="#00ad00" cx="211.00" cy="113.99" r="22.10"/>
<path fill="#00ad00" d="
  M 129.65 166.89
  Q 135.94 169.37 142.20 167.00
  A 1.21 1.21 0.0 0 0 142.47 164.89
  C 141.83 164.43 140.29 163.61 139.44 163.49
  C 132.87 162.55 119.32 160.70 116.80 156.13
  C 114.12 151.25 117.70 146.56 122.59 145.28
  C 130.83 143.12 150.29 141.03 155.36 150.25
  Q 156.87 153.00 153.73 153.00
  L 143.72 153.00
  Q 143.17 153.00 142.97 152.49
  C 141.51 148.64 133.74 149.56 130.79 150.54
  A 1.05 1.04 -28.1 0 0 130.29 152.17
  C 132.00 154.38 144.77 155.94 147.99 156.53
  C 153.78 157.60 160.77 163.69 155.05 169.56
  C 149.29 175.47 132.60 174.68 125.18 173.54
  C 119.96 172.74 115.31 170.35 115.48 164.28
  A 0.54 0.54 0.0 0 1 116.02 163.75
  L 127.83 163.75
  Q 128.22 163.75 128.32 164.12
  L 128.86 166.01
  Q 129.04 166.64 129.65 166.89
  Z"
/>
<path fill="#00ad00" d="
  M 176.25 155.00
  L 195.50 155.00
  A 0.50 0.50 0.0 0 1 196.00 155.50
  L 196.00 161.25
  A 0.50 0.50 0.0 0 1 195.50 161.75
  L 176.25 161.75
  A 0.50 0.50 0.0 0 0 175.75 162.25
  L 175.75 166.75
  A 0.50 0.50 0.0 0 0 176.25 167.25
  L 198.00 167.25
  A 0.50 0.50 0.0 0 1 198.50 167.75
  L 198.50 173.25
  A 0.50 0.50 0.0 0 1 198.00 173.75
  L 162.75 173.75
  A 0.50 0.50 0.0 0 1 162.25 173.25
  L 162.25 144.50
  A 0.50 0.50 0.0 0 1 162.75 144.00
  L 197.00 144.00
  A 0.50 0.50 0.0 0 1 197.50 144.50
  L 197.50 150.25
  A 0.50 0.50 0.0 0 1 197.00 150.75
  L 176.25 150.75
  A 0.50 0.50 0.0 0 0 175.75 151.25
  L 175.75 154.50
  A 0.50 0.50 0.0 0 0 176.25 155.00
  Z"
/>
<path fill="#00ad00" d="
  M 238.25 162.65
  L 238.25 144.34
  A 0.34 0.34 0.0 0 1 238.59 144.00
  L 250.91 144.00
  A 0.34 0.34 0.0 0 1 251.25 144.34
  L 251.25 173.41
  A 0.34 0.34 0.0 0 1 250.91 173.75
  L 233.70 173.75
  A 0.34 0.34 0.0 0 1 233.44 173.63
  L 217.10 154.75
  A 0.34 0.34 0.0 0 0 216.50 154.97
  L 216.50 173.41
  A 0.34 0.34 0.0 0 1 216.16 173.75
  L 204.09 173.75
  A 0.34 0.34 0.0 0 1 203.75 173.41
  L 203.75 144.34
  A 0.34 0.34 0.0 0 1 204.09 144.00
  L 220.48 144.00
  A 0.34 0.34 0.0 0 1 220.73 144.11
  L 237.66 162.87
  A 0.34 0.34 0.0 0 0 238.25 162.65
  Z"
/>
<path fill="#00ad00" d="
  M 252.44 172.69
  Q 262.12 158.53 271.99 144.43
  Q 272.29 144.00 272.81 144.00
  L 286.39 144.00
  Q 287.11 144.00 287.50 144.60
  L 306.37 173.22
  A 0.34 0.34 0.0 0 1 306.08 173.75
  L 292.26 173.75
  Q 291.63 173.75 291.32 173.20
  L 288.92 168.94
  Q 288.67 168.50 288.16 168.50
  L 268.94 168.50
  A 0.95 0.94 14.7 0 0 268.12 168.97
  L 265.64 173.28
  A 0.95 0.94 14.7 0 1 264.82 173.75
  L 252.10 173.75
  A 0.28 0.27 -86.3 0 1 251.83 173.43
  Q 251.90 172.83 252.44 172.69
  Z
  M 272.90 161.22
  A 0.32 0.32 0.0 0 0 273.17 161.70
  L 284.41 161.80
  A 0.32 0.32 0.0 0 0 284.69 161.32
  L 279.15 151.94
  A 0.32 0.32 0.0 0 0 278.60 151.94
  L 272.90 161.22
  Z"
/>
<path fill="#00ad00" d="
  M 165.84 197.05
  Q 137.02 196.94 108.29 197.02
  A 0.54 0.54 0.0 0 1 107.75 196.48
  L 107.75 181.50
  Q 107.75 181.00 108.25 181.00
  L 202.32 181.00
  A 0.34 0.33 -75.3 0 1 202.61 181.50
  L 147.45 277.52
  A 0.58 0.57 36.4 0 1 146.55 277.65
  L 135.37 267.18
  A 0.65 0.65 0.0 0 1 135.25 266.39
  Q 152.77 236.03 170.27 205.62
  C 172.96 200.94 171.44 197.08 165.84 197.05
  Z"
/>
<path fill="#00ad00" d="
  M 256.15 196.99
  C 252.01 196.99 248.64 200.39 251.00 204.48
  Q 268.86 235.39 286.68 266.24
  A 0.85 0.85 0.0 0 1 286.52 267.28
  L 275.39 277.71
  Q 274.91 278.16 274.59 277.59
  L 219.31 181.36
  A 0.25 0.24 -14.2 0 1 219.53 181.00
  L 313.75 181.00
  Q 314.25 181.00 314.25 181.50
  L 314.25 196.45
  A 0.53 0.53 0.0 0 1 313.72 196.98
  Q 284.90 197.04 256.15 196.99
  Z"
/>
<path fill="#00ad00" d="
  M 215.74 236.74
  C 212.88 231.97 208.78 231.56 205.88 236.45
  Q 189.23 264.43 172.55 292.61
  A 0.72 0.72 0.0 0 1 171.61 292.89
  L 158.50 286.47
  Q 158.00 286.23 158.28 285.75
  L 209.85 198.06
  Q 210.41 197.12 210.97 198.05
  L 263.71 285.24
  Q 263.99 285.70 263.51 285.95
  L 250.01 292.97
  Q 249.50 293.24 249.21 292.75
  Q 232.61 264.82 215.74 236.74
  Z"
/>
</svg>
