<svg id="visual" viewBox="0 0 1920 1080" width="1920" height="1080" xmlns="http://www.w3.org/2000/svg" xmlns:xlink="http://www.w3.org/1999/xlink" version="1.1"><rect x="0" y="0" width="1920" height="1080" fill="#fff"></rect><defs><linearGradient id="grad1_0" x1="43.8%" y1="0%" x2="100%" y2="100%"><stop offset="14.444444444444446%" stop-color="#39a000" stop-opacity="1"></stop><stop offset="85.55555555555554%" stop-color="#39a000" stop-opacity="1"></stop></linearGradient></defs><defs><linearGradient id="grad1_1" x1="43.8%" y1="0%" x2="100%" y2="100%"><stop offset="14.444444444444446%" stop-color="#39a000" stop-opacity="1"></stop><stop offset="85.55555555555554%" stop-color="#a5d08b" stop-opacity="1"></stop></linearGradient></defs><defs><linearGradient id="grad1_2" x1="43.8%" y1="0%" x2="100%" y2="100%"><stop offset="14.444444444444446%" stop-color="#ffffff" stop-opacity="1"></stop><stop offset="85.55555555555554%" stop-color="#a5d08b" stop-opacity="1"></stop></linearGradient></defs><defs><linearGradient id="grad2_0" x1="0%" y1="0%" x2="56.3%" y2="100%"><stop offset="14.444444444444446%" stop-color="#39a000" stop-opacity="1"></stop><stop offset="85.55555555555554%" stop-color="#39a000" stop-opacity="1"></stop></linearGradient></defs><defs><linearGradient id="grad2_1" x1="0%" y1="0%" x2="56.3%" y2="100%"><stop offset="14.444444444444446%" stop-color="#a5d08b" stop-opacity="1"></stop><stop offset="85.55555555555554%" stop-color="#39a000" stop-opacity="1"></stop></linearGradient></defs><defs><linearGradient id="grad2_2" x1="0%" y1="0%" x2="56.3%" y2="100%"><stop offset="14.444444444444446%" stop-color="#a5d08b" stop-opacity="1"></stop><stop offset="85.55555555555554%" stop-color="#ffffff" stop-opacity="1"></stop></linearGradient></defs><g transform="translate(1920, 0)"><path d="M0 972C-117.4 920.7 -234.8 869.5 -336.8 813C-438.7 756.5 -525.3 694.8 -625.1 625.1C-724.9 555.3 -838 477.5 -898 372C-958 266.4 -965 133.2 -972 0L0 0Z" fill="#d2e8c4"></path><path d="M0 648C-78.3 613.8 -156.5 579.7 -224.5 542C-292.5 504.4 -350.2 463.2 -416.7 416.7C-483.3 370.2 -558.7 318.3 -598.7 248C-638.7 177.6 -643.3 88.8 -648 0L0 0Z" fill="#74b852"></path><path d="M0 324C-39.1 306.9 -78.3 289.8 -112.3 271C-146.2 252.2 -175.1 231.6 -208.4 208.4C-241.6 185.1 -279.3 159.2 -299.3 124C-319.3 88.8 -321.7 44.4 -324 0L0 0Z" fill="#39a000"></path></g><g transform="translate(0, 1080)"><path d="M0 -972C109.8 -923.5 219.6 -874.9 347.1 -838C474.5 -801 619.6 -775.6 687.3 -687.3C755 -599.1 745.2 -448 779.8 -323C814.3 -198 893.1 -99 972 0L0 0Z" fill="#d2e8c4"></path><path d="M0 -648C73.2 -615.6 146.4 -583.3 231.4 -558.6C316.4 -534 413.1 -517 458.2 -458.2C503.3 -399.4 496.8 -298.7 519.8 -215.3C542.9 -132 595.4 -66 648 0L0 0Z" fill="#74b852"></path><path d="M0 -324C36.6 -307.8 73.2 -291.6 115.7 -279.3C158.2 -267 206.5 -258.5 229.1 -229.1C251.7 -199.7 248.4 -149.3 259.9 -107.7C271.4 -66 297.7 -33 324 0L0 0Z" fill="#39a000"></path></g></svg>