<svg id="visual" viewBox="0 0 1920 1080" width="1920" height="1080" xmlns="http://www.w3.org/2000/svg" xmlns:xlink="http://www.w3.org/1999/xlink" version="1.1"><rect x="0" y="0" width="1920" height="1080" fill="#ececec"></rect><path d="M0 827L32 829C64 831 128 835 192 847.7C256 860.3 320 881.7 384 888.5C448 895.3 512 887.7 576 873.3C640 859 704 838 768 829.7C832 821.3 896 825.7 960 841.3C1024 857 1088 884 1152 879C1216 874 1280 837 1344 836.7C1408 836.3 1472 872.7 1536 887C1600 901.3 1664 893.7 1728 892.5C1792 891.3 1856 896.7 1888 899.3L1920 902L1920 1081L1888 1081C1856 1081 1792 1081 1728 1081C1664 1081 1600 1081 1536 1081C1472 1081 1408 1081 1344 1081C1280 1081 1216 1081 1152 1081C1088 1081 1024 1081 960 1081C896 1081 832 1081 768 1081C704 1081 640 1081 576 1081C512 1081 448 1081 384 1081C320 1081 256 1081 192 1081C128 1081 64 1081 32 1081L0 1081Z" fill="#39A900" stroke-linecap="round" stroke-linejoin="miter"></path></svg>